# MagicaVoxel @ Ephtracy

# group
o 

# material
mtllib robot_head.mtl
usemtl palette

# normals
vn -1 0 0
vn 1 0 0
vn 0 0 1
vn 0 0 -1
vn 0 -1 0
vn 0 1 0

# texcoords
vt 0.0644531 0.5
vt 0.447266 0.5
vt 0.716797 0.5
vt 0.791016 0.5
vt 0.994141 0.5

# verts
v -0.1 1.4 1.3
v -0.1 1.4 0.2
v -0.1 1.7 0.3
v -0.1 1.7 0.2
v -0.1 1.8 0.4
v -0.1 1.8 0.3
v -0.1 1.9 0.6
v -0.1 1.9 0.4
v -0.1 2 1
v -0.1 2 0.9
v -0.1 2 0.7
v -0.1 2 0.6
v -0.1 2.1 1.3
v -0.1 2.1 1
v -0.1 2.1 0.9
v -0.1 2.1 0.7
v -0.1 2.4 1.3
v -0.1 2.4 0.2
v 1 1.4 1.3
v 1 1.4 0.2
v 1 1.6 0.5
v 1 1.6 0.2
v 1 1.7 0.7
v 1 1.7 0.5
v 1 1.8 0.8
v 1 1.8 0.7
v 1 2.1 1.3
v 1 2.1 0.8
v 1 2.4 1.3
v 1 2.4 0.2
v -0.1 1.4 1.3
v -0.1 2.1 1.3
v -0.1 2.4 1.3
v 0 2 1.3
v 0 2.1 1.3
v 0 2.3 1.3
v 0.1 1.9 1.3
v 0.1 2 1.3
v 0.1 2.2 1.3
v 0.1 2.3 1.3
v 0.2 2.2 1.3
v 0.2 2.3 1.3
v 0.3 1.5 1.3
v 0.3 1.6 1.3
v 0.3 1.9 1.3
v 0.3 2 1.3
v 0.3 2.2 1.3
v 0.3 2.3 1.3
v 0.4 1.7 1.3
v 0.4 1.9 1.3
v 0.4 2 1.3
v 0.4 2.1 1.3
v 0.5 1.8 1.3
v 0.5 1.9 1.3
v 0.5 2 1.3
v 0.5 2.1 1.3
v 0.6 1.5 1.3
v 0.6 1.6 1.3
v 0.6 1.7 1.3
v 0.6 1.8 1.3
v 0.6 1.9 1.3
v 0.6 2 1.3
v 0.6 2.2 1.3
v 0.6 2.3 1.3
v 0.7 2.2 1.3
v 0.7 2.3 1.3
v 0.8 1.9 1.3
v 0.8 2 1.3
v 0.8 2.2 1.3
v 0.8 2.3 1.3
v 0.9 2 1.3
v 0.9 2.1 1.3
v 0.9 2.3 1.3
v 1 1.4 1.3
v 1 2.1 1.3
v 1 2.4 1.3
v -0.1 1.4 0.2
v -0.1 1.7 0.2
v -0.1 2.4 0.2
v 0 1.7 0.2
v 0 2.3 0.2
v 0.9 1.6 0.2
v 0.9 2.3 0.2
v 1 1.4 0.2
v 1 1.6 0.2
v 1 2.4 0.2
v -0.1 1.4 1.3
v 1 1.4 1.3
v -0.1 1.4 0.2
v 1 1.4 0.2
v -0.1 2.4 1.3
v 1 2.4 1.3
v -0.1 2.4 0.2
v 1 2.4 0.2

# faces
f 3/2/1 2/2/1 1/2/1
f 4/2/1 2/2/1 3/2/1
f 5/2/1 3/2/1 1/2/1
f 6/5/1 4/5/1 3/5/1
f 6/2/1 3/2/1 5/2/1
f 7/2/1 5/2/1 1/2/1
f 8/5/1 6/5/1 5/5/1
f 8/2/1 5/2/1 7/2/1
f 9/2/1 7/2/1 1/2/1
f 10/2/1 7/2/1 9/2/1
f 11/2/1 7/2/1 10/2/1
f 12/5/1 8/5/1 7/5/1
f 12/2/1 7/2/1 11/2/1
f 13/2/1 9/2/1 1/2/1
f 14/5/1 10/5/1 9/5/1
f 14/2/1 9/2/1 13/2/1
f 15/2/1 11/2/1 10/2/1
f 15/5/1 10/5/1 14/5/1
f 16/5/1 12/5/1 11/5/1
f 16/2/1 11/2/1 15/2/1
f 17/5/1 14/5/1 13/5/1
f 17/5/1 15/5/1 14/5/1
f 17/5/1 16/5/1 15/5/1
f 18/5/1 4/5/1 6/5/1
f 18/5/1 16/5/1 17/5/1
f 18/5/1 6/5/1 8/5/1
f 18/5/1 12/5/1 16/5/1
f 18/5/1 8/5/1 12/5/1
f 19/2/2 20/2/2 21/2/2
f 21/2/2 20/2/2 22/2/2
f 19/2/2 21/2/2 23/2/2
f 21/5/2 22/5/2 24/5/2
f 23/2/2 21/2/2 24/2/2
f 19/2/2 23/2/2 25/2/2
f 23/5/2 24/5/2 26/5/2
f 25/2/2 23/2/2 26/2/2
f 19/2/2 25/2/2 27/2/2
f 25/5/2 26/5/2 28/5/2
f 27/2/2 25/2/2 28/2/2
f 27/5/2 28/5/2 29/5/2
f 24/5/2 22/5/2 30/5/2
f 29/5/2 28/5/2 30/5/2
f 26/5/2 24/5/2 30/5/2
f 28/5/2 26/5/2 30/5/2
f 34/2/3 32/2/3 31/2/3
f 35/5/3 33/5/3 32/5/3
f 35/2/3 32/2/3 34/2/3
f 36/5/3 33/5/3 35/5/3
f 37/2/3 34/2/3 31/2/3
f 38/5/3 35/5/3 34/5/3
f 38/2/3 34/2/3 37/2/3
f 39/2/3 36/2/3 35/2/3
f 40/5/3 33/5/3 36/5/3
f 40/2/3 36/2/3 39/2/3
f 41/2/3 39/2/3 35/2/3
f 41/5/3 40/5/3 39/5/3
f 42/5/3 33/5/3 40/5/3
f 42/5/3 40/5/3 41/5/3
f 43/2/3 37/2/3 31/2/3
f 44/2/3 37/2/3 43/2/3
f 45/4/3 38/4/3 37/4/3
f 45/2/3 37/2/3 44/2/3
f 46/5/3 35/5/3 38/5/3
f 46/4/3 38/4/3 45/4/3
f 47/2/3 41/2/3 35/2/3
f 47/2/3 42/2/3 41/2/3
f 48/5/3 33/5/3 42/5/3
f 48/2/3 42/2/3 47/2/3
f 49/2/3 45/2/3 44/2/3
f 49/2/3 46/2/3 45/2/3
f 50/2/3 46/2/3 49/2/3
f 51/5/3 35/5/3 46/5/3
f 51/2/3 46/2/3 50/2/3
f 52/2/3 47/2/3 35/2/3
f 52/5/3 35/5/3 51/5/3
f 53/3/3 50/3/3 49/3/3
f 54/2/3 51/2/3 50/2/3
f 54/3/3 50/3/3 53/3/3
f 54/2/3 52/2/3 51/2/3
f 55/2/3 52/2/3 54/2/3
f 56/2/3 47/2/3 52/2/3
f 56/2/3 52/2/3 55/2/3
f 57/1/3 44/1/3 43/1/3
f 57/2/3 43/2/3 31/2/3
f 58/2/3 49/2/3 44/2/3
f 58/1/3 44/1/3 57/1/3
f 59/3/3 53/3/3 49/3/3
f 59/2/3 49/2/3 58/2/3
f 60/2/3 55/2/3 54/2/3
f 60/3/3 53/3/3 59/3/3
f 60/2/3 54/2/3 53/2/3
f 61/2/3 55/2/3 60/2/3
f 62/5/3 56/5/3 55/5/3
f 62/2/3 55/2/3 61/2/3
f 63/2/3 47/2/3 56/2/3
f 63/5/3 48/5/3 47/5/3
f 64/5/3 33/5/3 48/5/3
f 64/5/3 48/5/3 63/5/3
f 65/2/3 63/2/3 56/2/3
f 65/2/3 64/2/3 63/2/3
f 66/5/3 33/5/3 64/5/3
f 66/2/3 64/2/3 65/2/3
f 67/2/3 59/2/3 58/2/3
f 67/2/3 58/2/3 57/2/3
f 67/4/3 62/4/3 61/4/3
f 67/2/3 60/2/3 59/2/3
f 67/2/3 61/2/3 60/2/3
f 68/5/3 56/5/3 62/5/3
f 68/4/3 62/4/3 67/4/3
f 69/5/3 66/5/3 65/5/3
f 69/2/3 65/2/3 56/2/3
f 70/5/3 33/5/3 66/5/3
f 70/5/3 66/5/3 69/5/3
f 71/5/3 56/5/3 68/5/3
f 71/2/3 68/2/3 67/2/3
f 72/2/3 69/2/3 56/2/3
f 72/5/3 56/5/3 71/5/3
f 72/2/3 70/2/3 69/2/3
f 73/5/3 33/5/3 70/5/3
f 73/2/3 70/2/3 72/2/3
f 74/2/3 71/2/3 67/2/3
f 74/2/3 72/2/3 71/2/3
f 74/2/3 57/2/3 31/2/3
f 74/2/3 67/2/3 57/2/3
f 75/5/3 73/5/3 72/5/3
f 75/2/3 72/2/3 74/2/3
f 76/5/3 33/5/3 73/5/3
f 76/5/3 73/5/3 75/5/3
f 77/2/4 78/2/4 80/2/4
f 78/5/4 79/5/4 80/5/4
f 80/5/4 79/5/4 81/5/4
f 77/2/4 80/2/4 82/2/4
f 80/2/4 81/2/4 82/2/4
f 81/5/4 79/5/4 83/5/4
f 82/2/4 81/2/4 83/2/4
f 77/2/4 82/2/4 84/2/4
f 82/5/4 83/5/4 85/5/4
f 84/2/4 82/2/4 85/2/4
f 83/5/4 79/5/4 86/5/4
f 85/5/4 83/5/4 86/5/4
f 89/2/5 88/2/5 87/2/5
f 90/2/5 88/2/5 89/2/5
f 91/5/6 92/5/6 93/5/6
f 93/5/6 92/5/6 94/5/6
