# MagicaVoxel @ Ephtracy

# group
o 

# material
mtllib cube.mtl
usemtl palette

# normals
vn -1 0 0
vn 1 0 0
vn 0 0 1
vn 0 0 -1
vn 0 -1 0
vn 0 1 0

# texcoords
vt 0.00195313 0.5
vt 0.0917969 0.5
vt 0.302734 0.5
vt 0.306641 0.5
vt 0.376953 0.5
vt 0.740234 0.5
vt 0.822266 0.5
vt 0.841797 0.5

# verts
v -1.3 0.6 1.2
v -1.3 0.6 -1.3
v -1.3 0.7 1.1
v -1.3 0.7 -1.2
v -1.3 3 1.1
v -1.3 3 -1.2
v -1.3 3.1 1.2
v -1.3 3.1 -1.3
v 1.2 0.6 1.2
v 1.2 0.6 -1.3
v 1.2 0.7 1.1
v 1.2 0.7 -1.2
v 1.2 3 1.1
v 1.2 3 -1.2
v 1.2 3.1 1.2
v 1.2 3.1 -1.3
v -1.3 0.6 1.2
v -1.3 3.1 1.2
v -1.2 0.7 1.2
v -1.2 3 1.2
v 1.1 0.7 1.2
v 1.1 3 1.2
v 1.2 0.6 1.2
v 1.2 3.1 1.2
v -1.3 0.6 -1.3
v -1.3 3.1 -1.3
v -1.2 0.7 -1.3
v -1.2 3 -1.3
v 1.1 0.7 -1.3
v 1.1 3 -1.3
v 1.2 0.6 -1.3
v 1.2 3.1 -1.3
v -1.3 0.6 1.2
v 1.2 0.6 1.2
v -1.2 0.6 1.1
v 1.1 0.6 1.1
v -1.2 0.6 -1.2
v 1.1 0.6 -1.2
v -1.3 0.6 -1.3
v 1.2 0.6 -1.3
v -1.3 3.1 1.2
v 1.2 3.1 1.2
v -1.2 3.1 1.1
v 1.1 3.1 1.1
v -1.2 3.1 -1.2
v 1.1 3.1 -1.2
v -1.3 3.1 -1.3
v 1.2 3.1 -1.3

# faces
f 3/1/1 2/1/1 1/1/1
f 4/1/1 2/1/1 3/1/1
f 5/1/1 3/1/1 1/1/1
f 5/6/1 4/6/1 3/6/1
f 6/1/1 2/1/1 4/1/1
f 6/6/1 4/6/1 5/6/1
f 7/1/1 5/1/1 1/1/1
f 7/1/1 6/1/1 5/1/1
f 8/1/1 2/1/1 6/1/1
f 8/1/1 6/1/1 7/1/1
f 9/1/2 10/1/2 11/1/2
f 11/1/2 10/1/2 12/1/2
f 9/1/2 11/1/2 13/1/2
f 11/5/2 12/5/2 13/5/2
f 12/1/2 10/1/2 14/1/2
f 13/5/2 12/5/2 14/5/2
f 9/1/2 13/1/2 15/1/2
f 13/1/2 14/1/2 15/1/2
f 14/1/2 10/1/2 16/1/2
f 15/1/2 14/1/2 16/1/2
f 19/1/3 18/1/3 17/1/3
f 20/1/3 18/1/3 19/1/3
f 21/1/3 19/1/3 17/1/3
f 21/7/3 20/7/3 19/7/3
f 22/1/3 18/1/3 20/1/3
f 22/7/3 20/7/3 21/7/3
f 23/1/3 21/1/3 17/1/3
f 23/1/3 22/1/3 21/1/3
f 24/1/3 18/1/3 22/1/3
f 24/1/3 22/1/3 23/1/3
f 25/1/4 26/1/4 27/1/4
f 27/1/4 26/1/4 28/1/4
f 25/1/4 27/1/4 29/1/4
f 27/2/4 28/2/4 29/2/4
f 28/1/4 26/1/4 30/1/4
f 29/2/4 28/2/4 30/2/4
f 25/1/4 29/1/4 31/1/4
f 29/1/4 30/1/4 31/1/4
f 30/1/4 26/1/4 32/1/4
f 31/1/4 30/1/4 32/1/4
f 35/1/5 34/1/5 33/1/5
f 36/1/5 34/1/5 35/1/5
f 37/1/5 35/1/5 33/1/5
f 37/3/5 36/3/5 35/3/5
f 38/1/5 34/1/5 36/1/5
f 38/3/5 36/3/5 37/3/5
f 39/1/5 37/1/5 33/1/5
f 39/1/5 38/1/5 37/1/5
f 40/1/5 34/1/5 38/1/5
f 40/1/5 38/1/5 39/1/5
f 41/1/6 42/1/6 43/1/6
f 43/1/6 42/1/6 44/1/6
f 41/1/6 43/1/6 45/1/6
f 43/8/6 44/8/6 45/8/6
f 44/1/6 42/1/6 46/1/6
f 45/8/6 44/8/6 46/8/6
f 41/1/6 45/1/6 47/1/6
f 45/1/6 46/1/6 47/1/6
f 46/1/6 42/1/6 48/1/6
f 47/1/6 46/1/6 48/1/6
