# MagicaVoxel @ Ephtracy

# group
o 

# material
mtllib chair_body.mtl
usemtl palette

# normals
vn -1 0 0
vn 1 0 0
vn 0 0 1
vn 0 0 -1
vn 0 -1 0
vn 0 1 0

# texcoords
vt 0.00195313 0.5
vt 0.306641 0.5
vt 0.822266 0.5
vt 0.958984 0.5
vt 0.982422 0.5
vt 0.994141 0.5

# verts
v -1.6 0.5 0.3
v -1.6 0.5 -0.2
v -1.6 0.6 0.3
v -1.6 0.6 -0.2
v -1.3 2.6 0.1
v -1.3 2.6 -0.9
v -1.3 2.7 0.1
v -1.3 2.7 -0.9
v -1.2 1.7 -0.0999999
v -1.2 1.7 -0.4
v -1.2 2.6 -0.0999999
v -1.2 2.6 -0.4
v -1 1.4 0.7
v -1 1.4 0.3
v -1 1.7 0.3
v -1 1.7 -0.0999999
v -1 1.7 -0.4
v -1 1.7 -1.2
v -1 1.7 -1.3
v -1 1.8 0.7
v -1 1.8 -0.0999999
v -1 1.8 -0.4
v -1 1.8 -1.2
v -1 1.9 0.7
v -1 1.9 -0.0999999
v -1 1.9 -0.4
v -1 1.9 -1.3
v -0.9 1.4 0.9
v -0.9 1.4 0.7
v -0.9 1.6 0.3
v -0.9 1.6 -1.3
v -0.9 1.7 0.3
v -0.9 1.7 -1.2
v -0.9 1.7 -1.3
v -0.9 1.8 0.8
v -0.9 1.8 0.7
v -0.9 1.9 0.9
v -0.9 1.9 0.8
v -0.9 1.9 0.7
v -0.2 0.5 1.7
v -0.2 0.5 0.3
v -0.2 0.5 -0.2
v -0.2 0.5 -1.6
v -0.2 0.6 1.7
v -0.2 0.6 0.3
v -0.2 0.6 -0.2
v -0.2 0.6 -1.6
v -0.2 1.1 0.3
v -0.2 1.1 -0.2
v -0.1 1.1 0.2
v -0.1 1.1 -0.0999999
v -0.1 1.6 0.2
v -0.1 1.6 -0.0999999
v 0.1 1.1 0.1
v 0.1 1.1 0
v 0.1 1.6 0.1
v 0.1 1.6 0
v 0.2 0.6 0.2
v 0.2 0.6 -0.0999999
v 0.2 1.1 0.2
v 0.2 1.1 -0.0999999
v 0.2 1.6 0.2
v 0.2 1.6 -0.0999999
v 0.2 1.7 0.2
v 0.2 1.7 -0.0999999
v 0.9 1.5 0.5
v 0.9 1.5 0.4
v 0.9 1.6 0.6
v 0.9 1.6 0.5
v 0.9 1.6 0.4
v 0.9 1.6 0.3
v 0.9 1.7 0.3
v 0.9 1.7 -1.1
v 0.9 1.7 -1.2
v 0.9 1.8 0.6
v 0.9 1.8 -1.1
v 0.9 1.8 -1.2
v 1 1.6 0.3
v 1 1.6 -1.1
v 1 1.7 0.3
v 1 1.7 -1.1
v 1 2.6 0.1
v 1 2.6 -0.9
v 1 2.7 0.1
v 1 2.7 -0.9
v 1.2 1.9 -0.0999999
v 1.2 1.9 -0.4
v 1.2 2.6 -0.0999999
v 1.2 2.6 -0.4
v -1.1 1.9 -0.0999999
v -1.1 1.9 -0.4
v -1.1 2.6 -0.0999999
v -1.1 2.6 -0.4
v -0.9 1.5 0.5
v -0.9 1.5 0.4
v -0.9 1.6 0.6
v -0.9 1.6 0.5
v -0.9 1.6 0.4
v -0.9 1.6 0.3
v -0.9 1.7 0.3
v -0.9 1.7 -1.2
v -0.9 1.8 0.6
v -0.9 1.8 -1.2
v -0.9 2.6 0.1
v -0.9 2.6 -0.9
v -0.9 2.7 0.1
v -0.9 2.7 -0.9
v -0.1 0.6 0.2
v -0.1 0.6 -0.0999999
v -0.1 1.1 0.2
v -0.1 1.1 -0.0999999
v -0.1 1.6 0.2
v -0.1 1.6 -0.0999999
v -0.1 1.7 0.2
v -0.1 1.7 -0.0999999
v 0 1.1 0.1
v 0 1.1 0
v 0 1.6 0.1
v 0 1.6 0
v 0.2 1.1 0.2
v 0.2 1.1 -0.0999999
v 0.2 1.6 0.2
v 0.2 1.6 -0.0999999
v 0.3 0.5 1.7
v 0.3 0.5 0.3
v 0.3 0.5 -0.2
v 0.3 0.5 -1.6
v 0.3 0.6 1.7
v 0.3 0.6 0.3
v 0.3 0.6 -0.2
v 0.3 0.6 -1.6
v 0.3 1.1 0.3
v 0.3 1.1 -0.2
v 0.9 1.6 0.3
v 0.9 1.6 -1.1
v 0.9 1.7 0.3
v 0.9 1.7 -1.1
v 1 1.4 0.9
v 1 1.4 0.7
v 1 1.8 0.8
v 1 1.8 0.7
v 1 1.9 0.9
v 1 1.9 0.8
v 1 1.9 0.7
v 1.1 1.4 0.7
v 1.1 1.4 0.3
v 1.1 1.6 0.3
v 1.1 1.6 -1.3
v 1.1 1.7 -1.1
v 1.1 1.7 -1.3
v 1.1 1.8 0.7
v 1.1 1.8 -0.0999999
v 1.1 1.8 -0.4
v 1.1 1.8 -1.1
v 1.1 1.9 0.7
v 1.1 1.9 -0.0999999
v 1.1 1.9 -0.4
v 1.1 1.9 -1.3
v 1.3 1.8 -0.0999999
v 1.3 1.8 -0.4
v 1.3 2.6 -0.0999999
v 1.3 2.6 -0.4
v 1.4 2.6 0.1
v 1.4 2.6 -0.9
v 1.4 2.7 0.1
v 1.4 2.7 -0.9
v 1.7 0.5 0.3
v 1.7 0.5 -0.2
v 1.7 0.6 0.3
v 1.7 0.6 -0.2
v -0.2 0.5 1.7
v -0.2 0.6 1.7
v 0.3 0.5 1.7
v 0.3 0.6 1.7
v -0.9 1.4 0.9
v -0.9 1.9 0.9
v 1 1.4 0.9
v 1 1.9 0.9
v -1 1.4 0.7
v -1 1.8 0.7
v -1 1.9 0.7
v -0.9 1.4 0.7
v -0.9 1.8 0.7
v -0.9 1.9 0.7
v 1 1.4 0.7
v 1 1.8 0.7
v 1 1.9 0.7
v 1.1 1.4 0.7
v 1.1 1.8 0.7
v 1.1 1.9 0.7
v -0.9 1.5 0.4
v -0.9 1.6 0.4
v 0.9 1.5 0.4
v 0.9 1.6 0.4
v -1.6 0.5 0.3
v -1.6 0.6 0.3
v -0.9 1.6 0.3
v -0.9 1.7 0.3
v -0.2 0.5 0.3
v -0.2 0.6 0.3
v -0.2 1.1 0.3
v 0.3 0.5 0.3
v 0.3 0.6 0.3
v 0.3 1.1 0.3
v 0.9 1.6 0.3
v 0.9 1.7 0.3
v 1.7 0.5 0.3
v 1.7 0.6 0.3
v -0.1 1.1 0.2
v -0.1 1.6 0.2
v 0.2 1.1 0.2
v 0.2 1.6 0.2
v -1.3 2.6 0.1
v -1.3 2.7 0.1
v -0.9 2.6 0.1
v -0.9 2.7 0.1
v 1 2.6 0.1
v 1 2.7 0.1
v 1.4 2.6 0.1
v 1.4 2.7 0.1
v 0 1.1 0
v 0 1.6 0
v 0.1 1.1 0
v 0.1 1.6 0
v -1.2 1.7 -0.0999999
v -1.2 2.6 -0.0999999
v -1.1 1.9 -0.0999999
v -1.1 2.6 -0.0999999
v -1 1.7 -0.0999999
v -1 1.8 -0.0999999
v -1 1.9 -0.0999999
v -0.1 0.6 -0.0999999
v -0.1 1.1 -0.0999999
v -0.1 1.6 -0.0999999
v -0.1 1.7 -0.0999999
v 0.2 0.6 -0.0999999
v 0.2 1.1 -0.0999999
v 0.2 1.6 -0.0999999
v 0.2 1.7 -0.0999999
v 1.1 1.8 -0.0999999
v 1.1 1.9 -0.0999999
v 1.2 1.9 -0.0999999
v 1.2 2.6 -0.0999999
v 1.3 1.8 -0.0999999
v 1.3 2.6 -0.0999999
v 0.9 1.6 -1.1
v 0.9 1.7 -1.1
v 1 1.6 -1.1
v 1 1.7 -1.1
v -0.9 1.7 -1.2
v -0.9 1.8 -1.2
v 0.9 1.7 -1.2
v 0.9 1.8 -1.2
v -0.9 1.6 0.6
v -0.9 1.8 0.6
v 0.9 1.6 0.6
v 0.9 1.8 0.6
v -0.9 1.5 0.5
v -0.9 1.6 0.5
v 0.9 1.5 0.5
v 0.9 1.6 0.5
v -1 1.4 0.3
v -1 1.7 0.3
v -0.9 1.5 0.3
v -0.9 1.6 0.3
v -0.9 1.7 0.3
v 0.9 1.5 0.3
v 0.9 1.6 0.3
v 0.9 1.7 0.3
v 1 1.6 0.3
v 1 1.7 0.3
v 1.1 1.4 0.3
v 1.1 1.6 0.3
v -0.1 0.6 0.2
v -0.1 1.1 0.2
v -0.1 1.6 0.2
v -0.1 1.7 0.2
v 0.2 0.6 0.2
v 0.2 1.1 0.2
v 0.2 1.6 0.2
v 0.2 1.7 0.2
v 0 1.1 0.1
v 0 1.6 0.1
v 0.1 1.1 0.1
v 0.1 1.6 0.1
v -0.1 1.1 -0.0999999
v -0.1 1.6 -0.0999999
v 0.2 1.1 -0.0999999
v 0.2 1.6 -0.0999999
v -1.6 0.5 -0.2
v -1.6 0.6 -0.2
v -0.2 0.5 -0.2
v -0.2 0.6 -0.2
v -0.2 1.1 -0.2
v 0.3 0.5 -0.2
v 0.3 0.6 -0.2
v 0.3 1.1 -0.2
v 1.7 0.5 -0.2
v 1.7 0.6 -0.2
v -1.2 1.7 -0.4
v -1.2 2.6 -0.4
v -1.1 1.9 -0.4
v -1.1 2.6 -0.4
v -1 1.7 -0.4
v -1 1.8 -0.4
v -1 1.9 -0.4
v 1.1 1.8 -0.4
v 1.1 1.9 -0.4
v 1.2 1.9 -0.4
v 1.2 2.6 -0.4
v 1.3 1.8 -0.4
v 1.3 2.6 -0.4
v -1.3 2.6 -0.9
v -1.3 2.7 -0.9
v -0.9 2.6 -0.9
v -0.9 2.7 -0.9
v 1 2.6 -0.9
v 1 2.7 -0.9
v 1.4 2.6 -0.9
v 1.4 2.7 -0.9
v -1 1.7 -1.3
v -1 1.9 -1.3
v -0.9 1.6 -1.3
v -0.9 1.7 -1.3
v 1.1 1.6 -1.3
v 1.1 1.7 -1.3
v 1.1 1.9 -1.3
v -0.2 0.5 -1.6
v -0.2 0.6 -1.6
v 0.3 0.5 -1.6
v 0.3 0.6 -1.6
v -0.2 0.5 1.7
v 0.3 0.5 1.7
v -1.6 0.5 0.3
v -0.2 0.5 0.3
v 0.3 0.5 0.3
v 1.7 0.5 0.3
v -1.6 0.5 -0.2
v -0.2 0.5 -0.2
v 0.3 0.5 -0.2
v 1.7 0.5 -0.2
v -0.2 0.5 -1.6
v 0.3 0.5 -1.6
v -0.1 1.1 0.2
v 0.2 1.1 0.2
v 0 1.1 0.1
v 0.1 1.1 0.1
v 0 1.1 0
v 0.1 1.1 0
v -0.1 1.1 -0.0999999
v 0.2 1.1 -0.0999999
v -0.9 1.4 0.9
v 1 1.4 0.9
v -1 1.4 0.7
v -0.9 1.4 0.7
v 1 1.4 0.7
v 1.1 1.4 0.7
v -1 1.4 0.3
v 1.1 1.4 0.3
v -0.9 1.6 0.3
v 0.9 1.6 0.3
v 1 1.6 0.3
v 1.1 1.6 0.3
v -0.1 1.6 0.2
v 0.2 1.6 0.2
v -0.1 1.6 -0.0999999
v 0.2 1.6 -0.0999999
v 0.9 1.6 -1.1
v 1 1.6 -1.1
v -0.9 1.6 -1.3
v 1.1 1.6 -1.3
v -1 1.7 0.3
v -0.9 1.7 0.3
v 0.9 1.7 0.3
v 1 1.7 0.3
v -1.2 1.7 -0.0999999
v -1 1.7 -0.0999999
v -1.2 1.7 -0.4
v -1 1.7 -0.4
v 0.9 1.7 -1.1
v 1 1.7 -1.1
v -1 1.7 -1.2
v -0.9 1.7 -1.2
v -1 1.7 -1.3
v -0.9 1.7 -1.3
v -0.9 1.8 0.6
v 0.9 1.8 0.6
v 1.1 1.8 -0.0999999
v 1.3 1.8 -0.0999999
v 1.1 1.8 -0.4
v 1.3 1.8 -0.4
v 0.9 1.8 -1.1
v -0.9 1.8 -1.2
v 0.9 1.8 -1.2
v -1.3 2.6 0.1
v -0.9 2.6 0.1
v 1 2.6 0.1
v 1.4 2.6 0.1
v -1.2 2.6 -0.0999999
v -1.1 2.6 -0.0999999
v 1.2 2.6 -0.0999999
v 1.3 2.6 -0.0999999
v -1.2 2.6 -0.4
v -1.1 2.6 -0.4
v 1.2 2.6 -0.4
v 1.3 2.6 -0.4
v -1.3 2.6 -0.9
v -0.9 2.6 -0.9
v 1 2.6 -0.9
v 1.4 2.6 -0.9
v -0.2 0.6 1.7
v 0.3 0.6 1.7
v -1.6 0.6 0.3
v -0.2 0.6 0.3
v 0.3 0.6 0.3
v 1.7 0.6 0.3
v -0.1 0.6 0.2
v 0.2 0.6 0.2
v -0.1 0.6 -0.0999999
v 0.2 0.6 -0.0999999
v -1.6 0.6 -0.2
v -0.2 0.6 -0.2
v 0.3 0.6 -0.2
v 1.7 0.6 -0.2
v -0.2 0.6 -1.6
v 0.3 0.6 -1.6
v -0.2 1.1 0.3
v 0.3 1.1 0.3
v -0.1 1.1 0.2
v 0.2 1.1 0.2
v -0.1 1.1 -0.0999999
v 0.2 1.1 -0.0999999
v -0.2 1.1 -0.2
v 0.3 1.1 -0.2
v -0.9 1.5 0.5
v 0.9 1.5 0.5
v -0.9 1.5 0.4
v 0.9 1.5 0.4
v -0.9 1.6 0.6
v 0.9 1.6 0.6
v -0.9 1.6 0.5
v 0.9 1.6 0.5
v -0.9 1.6 0.4
v 0.9 1.6 0.4
v -0.9 1.6 0.3
v 0.9 1.6 0.3
v -0.1 1.6 0.2
v 0.2 1.6 0.2
v 0 1.6 0.1
v 0.1 1.6 0.1
v 0 1.6 0
v 0.1 1.6 0
v -0.1 1.6 -0.0999999
v 0.2 1.6 -0.0999999
v -0.9 1.7 0.3
v 0.9 1.7 0.3
v -0.1 1.7 0.2
v 0.2 1.7 0.2
v -0.1 1.7 -0.0999999
v 0.2 1.7 -0.0999999
v 0.9 1.7 -1.1
v -0.9 1.7 -1.2
v 0.9 1.7 -1.2
v -0.9 1.9 0.9
v 1 1.9 0.9
v -0.9 1.9 0.8
v 1 1.9 0.8
v -1 1.9 0.7
v -0.9 1.9 0.7
v 1 1.9 0.7
v 1.1 1.9 0.7
v -1.1 1.9 -0.0999999
v -1 1.9 -0.0999999
v 1.1 1.9 -0.0999999
v 1.2 1.9 -0.0999999
v -1.1 1.9 -0.4
v -1 1.9 -0.4
v 1.1 1.9 -0.4
v 1.2 1.9 -0.4
v -1 1.9 -1.3
v 1.1 1.9 -1.3
v -1.3 2.7 0.1
v -0.9 2.7 0.1
v 1 2.7 0.1
v 1.4 2.7 0.1
v -1.3 2.7 -0.9
v -0.9 2.7 -0.9
v 1 2.7 -0.9
v 1.4 2.7 -0.9

# faces
f 3/6/1 2/6/1 1/6/1
f 4/6/1 2/6/1 3/6/1
f 7/6/1 6/6/1 5/6/1
f 8/6/1 6/6/1 7/6/1
f 11/5/1 10/5/1 9/5/1
f 12/5/1 10/5/1 11/5/1
f 15/6/1 14/6/1 13/6/1
f 20/6/1 15/6/1 13/6/1
f 20/6/1 16/6/1 15/6/1
f 21/6/1 16/6/1 20/6/1
f 22/6/1 18/6/1 17/6/1
f 23/3/1 19/3/1 18/3/1
f 23/6/1 18/6/1 22/6/1
f 24/3/1 21/3/1 20/3/1
f 25/3/1 21/3/1 24/3/1
f 26/3/1 23/3/1 22/3/1
f 27/3/1 19/3/1 23/3/1
f 27/3/1 23/3/1 26/3/1
f 32/6/1 31/6/1 30/6/1
f 33/6/1 31/6/1 32/6/1
f 34/6/1 31/6/1 33/6/1
f 35/6/1 29/6/1 28/6/1
f 36/6/1 29/6/1 35/6/1
f 37/6/1 35/6/1 28/6/1
f 38/1/1 36/1/1 35/1/1
f 38/6/1 35/6/1 37/6/1
f 39/1/1 36/1/1 38/1/1
f 44/6/1 41/6/1 40/6/1
f 45/6/1 41/6/1 44/6/1
f 46/6/1 43/6/1 42/6/1
f 47/6/1 43/6/1 46/6/1
f 48/6/1 46/6/1 45/6/1
f 49/6/1 46/6/1 48/6/1
f 52/1/1 51/1/1 50/1/1
f 53/1/1 51/1/1 52/1/1
f 56/1/1 55/1/1 54/1/1
f 57/1/1 55/1/1 56/1/1
f 60/6/1 59/6/1 58/6/1
f 61/6/1 59/6/1 60/6/1
f 64/6/1 63/6/1 62/6/1
f 65/6/1 63/6/1 64/6/1
f 69/6/1 67/6/1 66/6/1
f 70/6/1 67/6/1 69/6/1
f 72/6/1 69/6/1 68/6/1
f 72/6/1 71/6/1 70/6/1
f 72/6/1 70/6/1 69/6/1
f 75/6/1 72/6/1 68/6/1
f 75/6/1 73/6/1 72/6/1
f 76/3/1 74/3/1 73/3/1
f 76/6/1 73/6/1 75/6/1
f 77/3/1 74/3/1 76/3/1
f 80/6/1 79/6/1 78/6/1
f 81/6/1 79/6/1 80/6/1
f 84/6/1 83/6/1 82/6/1
f 85/6/1 83/6/1 84/6/1
f 88/5/1 87/5/1 86/5/1
f 89/5/1 87/5/1 88/5/1
f 90/5/2 91/5/2 92/5/2
f 92/5/2 91/5/2 93/5/2
f 94/6/2 95/6/2 97/6/2
f 97/6/2 95/6/2 98/6/2
f 96/6/2 97/6/2 100/6/2
f 98/6/2 99/6/2 100/6/2
f 97/6/2 98/6/2 100/6/2
f 96/6/2 100/6/2 102/6/2
f 100/6/2 101/6/2 102/6/2
f 102/6/2 101/6/2 103/6/2
f 104/6/2 105/6/2 106/6/2
f 106/6/2 105/6/2 107/6/2
f 108/6/2 109/6/2 110/6/2
f 110/6/2 109/6/2 111/6/2
f 112/6/2 113/6/2 114/6/2
f 114/6/2 113/6/2 115/6/2
f 116/1/2 117/1/2 118/1/2
f 118/1/2 117/1/2 119/1/2
f 120/1/2 121/1/2 122/1/2
f 122/1/2 121/1/2 123/1/2
f 124/6/2 125/6/2 128/6/2
f 128/6/2 125/6/2 129/6/2
f 126/6/2 127/6/2 130/6/2
f 130/6/2 127/6/2 131/6/2
f 129/6/2 130/6/2 132/6/2
f 132/6/2 130/6/2 133/6/2
f 134/6/2 135/6/2 136/6/2
f 136/6/2 135/6/2 137/6/2
f 138/6/2 139/6/2 140/6/2
f 140/6/2 139/6/2 141/6/2
f 138/6/2 140/6/2 142/6/2
f 140/1/2 141/1/2 143/1/2
f 142/6/2 140/6/2 143/6/2
f 143/1/2 141/1/2 144/1/2
f 145/6/2 146/6/2 147/6/2
f 147/6/2 148/6/2 149/6/2
f 149/6/2 148/6/2 150/6/2
f 145/6/2 147/6/2 151/6/2
f 147/6/2 149/6/2 151/6/2
f 151/6/2 149/6/2 152/6/2
f 152/6/2 149/6/2 153/6/2
f 149/3/2 150/3/2 154/3/2
f 153/6/2 149/6/2 154/6/2
f 151/3/2 152/3/2 155/3/2
f 155/3/2 152/3/2 156/3/2
f 153/3/2 154/3/2 157/3/2
f 154/3/2 150/3/2 158/3/2
f 157/3/2 154/3/2 158/3/2
f 159/5/2 160/5/2 161/5/2
f 161/5/2 160/5/2 162/5/2
f 163/6/2 164/6/2 165/6/2
f 165/6/2 164/6/2 166/6/2
f 167/6/2 168/6/2 169/6/2
f 169/6/2 168/6/2 170/6/2
f 173/6/3 172/6/3 171/6/3
f 174/6/3 172/6/3 173/6/3
f 177/6/3 176/6/3 175/6/3
f 178/6/3 176/6/3 177/6/3
f 182/6/3 180/6/3 179/6/3
f 183/3/3 181/3/3 180/3/3
f 183/6/3 180/6/3 182/6/3
f 184/3/3 181/3/3 183/3/3
f 188/6/3 186/6/3 185/6/3
f 189/3/3 187/3/3 186/3/3
f 189/6/3 186/6/3 188/6/3
f 190/3/3 187/3/3 189/3/3
f 193/1/3 192/1/3 191/1/3
f 194/1/3 192/1/3 193/1/3
f 199/6/3 196/6/3 195/6/3
f 200/6/3 196/6/3 199/6/3
f 203/6/3 201/6/3 200/6/3
f 204/6/3 201/6/3 203/6/3
f 205/6/3 198/6/3 197/6/3
f 206/6/3 198/6/3 205/6/3
f 207/6/3 203/6/3 202/6/3
f 208/6/3 203/6/3 207/6/3
f 211/1/3 210/1/3 209/1/3
f 212/1/3 210/1/3 211/1/3
f 215/6/3 214/6/3 213/6/3
f 216/6/3 214/6/3 215/6/3
f 219/6/3 218/6/3 217/6/3
f 220/6/3 218/6/3 219/6/3
f 223/1/3 222/1/3 221/1/3
f 224/1/3 222/1/3 223/1/3
f 227/5/3 226/5/3 225/5/3
f 228/5/3 226/5/3 227/5/3
f 229/5/3 227/5/3 225/5/3
f 230/5/3 227/5/3 229/5/3
f 231/5/3 227/5/3 230/5/3
f 236/6/3 233/6/3 232/6/3
f 237/6/3 233/6/3 236/6/3
f 238/6/3 235/6/3 234/6/3
f 239/6/3 235/6/3 238/6/3
f 242/5/3 241/5/3 240/5/3
f 244/5/3 242/5/3 240/5/3
f 244/5/3 243/5/3 242/5/3
f 245/5/3 243/5/3 244/5/3
f 248/6/3 247/6/3 246/6/3
f 249/6/3 247/6/3 248/6/3
f 252/3/3 251/3/3 250/3/3
f 253/3/3 251/3/3 252/3/3
f 254/6/4 255/6/4 256/6/4
f 256/6/4 255/6/4 257/6/4
f 258/1/4 259/1/4 260/1/4
f 260/1/4 259/1/4 261/1/4
f 262/6/4 263/6/4 264/6/4
f 264/6/4 263/6/4 265/6/4
f 265/6/4 263/6/4 266/6/4
f 262/6/4 264/6/4 267/6/4
f 264/1/4 265/1/4 267/1/4
f 267/1/4 265/1/4 268/1/4
f 267/6/4 268/6/4 270/6/4
f 268/6/4 269/6/4 270/6/4
f 270/6/4 269/6/4 271/6/4
f 262/6/4 267/6/4 272/6/4
f 267/6/4 270/6/4 272/6/4
f 272/6/4 270/6/4 273/6/4
f 274/6/4 275/6/4 278/6/4
f 278/6/4 275/6/4 279/6/4
f 276/6/4 277/6/4 280/6/4
f 280/6/4 277/6/4 281/6/4
f 282/1/4 283/1/4 284/1/4
f 284/1/4 283/1/4 285/1/4
f 286/1/4 287/1/4 288/1/4
f 288/1/4 287/1/4 289/1/4
f 290/6/4 291/6/4 292/6/4
f 292/6/4 291/6/4 293/6/4
f 293/6/4 294/6/4 296/6/4
f 296/6/4 294/6/4 297/6/4
f 295/6/4 296/6/4 298/6/4
f 298/6/4 296/6/4 299/6/4
f 300/5/4 301/5/4 302/5/4
f 302/5/4 301/5/4 303/5/4
f 300/5/4 302/5/4 304/5/4
f 304/5/4 302/5/4 305/5/4
f 305/5/4 302/5/4 306/5/4
f 307/5/4 308/5/4 309/5/4
f 307/5/4 309/5/4 311/5/4
f 309/5/4 310/5/4 311/5/4
f 311/5/4 310/5/4 312/5/4
f 313/6/4 314/6/4 315/6/4
f 315/6/4 314/6/4 316/6/4
f 317/6/4 318/6/4 319/6/4
f 319/6/4 318/6/4 320/6/4
f 321/3/4 322/3/4 324/3/4
f 323/6/4 324/6/4 325/6/4
f 324/3/4 322/3/4 326/3/4
f 325/6/4 324/6/4 326/6/4
f 326/3/4 322/3/4 327/3/4
f 328/6/4 329/6/4 330/6/4
f 330/6/4 329/6/4 331/6/4
f 335/6/5 333/6/5 332/6/5
f 336/6/5 333/6/5 335/6/5
f 338/6/5 335/6/5 334/6/5
f 338/6/5 337/6/5 336/6/5
f 338/6/5 336/6/5 335/6/5
f 339/6/5 337/6/5 338/6/5
f 340/6/5 337/6/5 339/6/5
f 341/6/5 337/6/5 340/6/5
f 342/6/5 340/6/5 339/6/5
f 343/6/5 340/6/5 342/6/5
f 346/1/5 345/1/5 344/1/5
f 347/1/5 345/1/5 346/1/5
f 348/1/5 346/1/5 344/1/5
f 349/1/5 345/1/5 347/1/5
f 350/1/5 348/1/5 344/1/5
f 350/1/5 349/1/5 348/1/5
f 351/1/5 345/1/5 349/1/5
f 351/1/5 349/1/5 350/1/5
f 355/6/5 353/6/5 352/6/5
f 356/6/5 353/6/5 355/6/5
f 358/6/5 355/6/5 354/6/5
f 358/6/5 357/6/5 356/6/5
f 358/6/5 356/6/5 355/6/5
f 359/6/5 357/6/5 358/6/5
f 364/6/5 361/6/5 360/6/5
f 365/6/5 361/6/5 364/6/5
f 366/6/5 364/6/5 360/6/5
f 367/6/5 361/6/5 365/6/5
f 368/6/5 361/6/5 367/6/5
f 368/6/5 367/6/5 366/6/5
f 369/6/5 363/6/5 362/6/5
f 370/6/5 368/6/5 366/6/5
f 370/6/5 369/6/5 368/6/5
f 370/6/5 366/6/5 360/6/5
f 371/6/5 363/6/5 369/6/5
f 371/6/5 369/6/5 370/6/5
f 377/6/5 373/6/5 372/6/5
f 378/5/5 377/5/5 376/5/5
f 379/6/5 373/6/5 377/6/5
f 379/5/5 377/5/5 378/5/5
f 380/6/5 375/6/5 374/6/5
f 381/6/5 375/6/5 380/6/5
f 382/6/5 373/6/5 379/6/5
f 383/6/5 373/6/5 382/6/5
f 384/3/5 383/3/5 382/3/5
f 385/3/5 383/3/5 384/3/5
f 390/5/5 389/5/5 388/5/5
f 391/5/5 389/5/5 390/5/5
f 392/3/5 387/3/5 386/3/5
f 393/3/5 392/3/5 386/3/5
f 394/3/5 392/3/5 393/3/5
f 399/6/5 396/6/5 395/6/5
f 400/6/5 396/6/5 399/6/5
f 401/6/5 398/6/5 397/6/5
f 402/6/5 398/6/5 401/6/5
f 403/6/5 399/6/5 395/6/5
f 404/6/5 396/6/5 400/6/5
f 405/6/5 401/6/5 397/6/5
f 406/6/5 398/6/5 402/6/5
f 407/6/5 403/6/5 395/6/5
f 407/6/5 404/6/5 403/6/5
f 408/6/5 396/6/5 404/6/5
f 408/6/5 404/6/5 407/6/5
f 409/6/5 406/6/5 405/6/5
f 409/6/5 405/6/5 397/6/5
f 410/6/5 398/6/5 406/6/5
f 410/6/5 406/6/5 409/6/5
f 411/6/6 412/6/6 414/6/6
f 414/6/6 412/6/6 415/6/6
f 417/6/6 418/6/6 419/6/6
f 419/6/6 418/6/6 420/6/6
f 413/6/6 414/6/6 421/6/6
f 421/6/6 414/6/6 422/6/6
f 415/6/6 416/6/6 423/6/6
f 423/6/6 416/6/6 424/6/6
f 422/6/6 423/6/6 425/6/6
f 425/6/6 423/6/6 426/6/6
f 427/6/6 428/6/6 429/6/6
f 429/6/6 428/6/6 430/6/6
f 427/6/6 429/6/6 431/6/6
f 430/6/6 428/6/6 432/6/6
f 427/6/6 431/6/6 433/6/6
f 431/6/6 432/6/6 433/6/6
f 432/6/6 428/6/6 434/6/6
f 433/6/6 432/6/6 434/6/6
f 435/6/6 436/6/6 437/6/6
f 437/6/6 436/6/6 438/6/6
f 439/1/6 440/1/6 441/1/6
f 441/1/6 440/1/6 442/1/6
f 443/1/6 444/1/6 445/1/6
f 445/1/6 444/1/6 446/1/6
f 447/1/6 448/1/6 449/1/6
f 449/1/6 448/1/6 450/1/6
f 447/1/6 449/1/6 451/1/6
f 450/1/6 448/1/6 452/1/6
f 447/1/6 451/1/6 453/1/6
f 451/1/6 452/1/6 453/1/6
f 452/1/6 448/1/6 454/1/6
f 453/1/6 452/1/6 454/1/6
f 455/6/6 456/6/6 457/6/6
f 457/6/6 456/6/6 458/6/6
f 455/6/6 457/6/6 459/6/6
f 458/6/6 456/6/6 460/6/6
f 460/6/6 456/6/6 461/6/6
f 459/6/6 460/6/6 461/6/6
f 455/6/6 459/6/6 462/6/6
f 459/6/6 461/6/6 462/6/6
f 462/6/6 461/6/6 463/6/6
f 464/6/6 465/6/6 466/6/6
f 466/6/6 465/6/6 467/6/6
f 466/1/6 467/1/6 469/1/6
f 469/1/6 467/1/6 470/1/6
f 469/3/6 470/3/6 473/3/6
f 470/3/6 471/3/6 473/3/6
f 468/3/6 469/3/6 473/3/6
f 473/3/6 471/3/6 474/3/6
f 472/5/6 473/5/6 476/5/6
f 473/3/6 474/3/6 477/3/6
f 476/5/6 473/5/6 477/5/6
f 474/5/6 475/5/6 478/5/6
f 477/3/6 474/3/6 478/3/6
f 478/5/6 475/5/6 479/5/6
f 477/3/6 478/3/6 480/3/6
f 480/3/6 478/3/6 481/3/6
f 482/6/6 483/6/6 486/6/6
f 486/6/6 483/6/6 487/6/6
f 484/6/6 485/6/6 488/6/6
f 488/6/6 485/6/6 489/6/6
