# MagicaVoxel @ Ephtracy

# material
mtllib fc.mtl
usemtl palette

# normals
vn -1 0 0
vn 1 0 0
vn 0 0 1
vn 0 0 -1
vn 0 -1 0
vn 0 1 0

# texcoords
vt 0.0175781 0.5
vt 0.525391 0.5
vt 0.556641 0.5
vt 0.611328 0.5
vt 0.681641 0.5
vt 0.705078 0.5
vt 0.744141 0.5
vt 0.751953 0.5

# verts
v -4 25 7
v -4 25 6
v -4 31 7
v -4 31 6
v -2 19 7
v -2 19 6
v -2 20 7
v -2 20 6
v -1 20 7
v -1 20 6
v -1 21 7
v -1 21 6
v 0 21 7
v 0 21 6
v 0 22 7
v 0 22 6
v 1 22 7
v 1 22 6
v 1 23 7
v 1 23 6
v 2 23 7
v 2 23 6
v 2 24 7
v 2 24 6
v 2 26 7
v 2 26 6
v 2 27 7
v 2 27 6
v 2 28 7
v 2 28 6
v 2 29 7
v 2 29 6
v 2 30 7
v 2 30 6
v 2 31 7
v 2 31 6
v 2 32 7
v 2 32 6
v 2 33 7
v 2 33 6
v 3 24 7
v 3 24 6
v 3 25 7
v 3 25 6
v 5 25 7
v 5 25 6
v 5 26 7
v 5 26 6
v 6 24 7
v 6 24 6
v 6 25 7
v 6 25 6
v 7 23 7
v 7 23 6
v 7 24 7
v 7 24 6
v 8 22 7
v 8 22 6
v 8 23 7
v 8 23 6
v 9 21 7
v 9 21 6
v 9 22 7
v 9 22 6
v -3 30 7
v -3 30 6
v -3 31 7
v -3 31 6
v -2 29 7
v -2 29 6
v -2 30 7
v -2 30 6
v -1 28 7
v -1 28 6
v -1 29 7
v -1 29 6
v 0 27 7
v 0 27 6
v 0 28 7
v 0 28 6
v 1 26 7
v 1 26 6
v 1 27 7
v 1 27 6
v 3 27 7
v 3 27 6
v 3 28 7
v 3 28 6
v 4 19 7
v 4 19 6
v 4 20 7
v 4 20 6
v 4 21 7
v 4 21 6
v 4 22 7
v 4 22 6
v 4 23 7
v 4 23 6
v 4 24 7
v 4 24 6
v 4 25 7
v 4 25 6
v 4 26 7
v 4 26 6
v 4 28 7
v 4 28 6
v 4 29 7
v 4 29 6
v 5 29 7
v 5 29 6
v 5 30 7
v 5 30 6
v 6 30 7
v 6 30 6
v 6 31 7
v 6 31 6
v 7 31 7
v 7 31 6
v 7 32 7
v 7 32 6
v 8 32 7
v 8 32 6
v 8 33 7
v 8 33 6
v 10 21 7
v 10 21 6
v 10 27 7
v 10 27 6
v -4 25 7
v -4 31 7
v -3 25 7
v -3 30 7
v -3 31 7
v -2 19 7
v -2 20 7
v -2 25 7
v -2 29 7
v -2 30 7
v -1 20 7
v -1 21 7
v -1 25 7
v -1 27 7
v -1 28 7
v -1 29 7
v 0 21 7
v 0 22 7
v 0 25 7
v 0 27 7
v 0 28 7
v 1 22 7
v 1 23 7
v 1 25 7
v 1 26 7
v 1 27 7
v 2 23 7
v 2 24 7
v 2 25 7
v 2 26 7
v 2 27 7
v 2 28 7
v 2 29 7
v 2 30 7
v 2 31 7
v 2 32 7
v 2 33 7
v 3 24 7
v 3 25 7
v 3 27 7
v 3 28 7
v 4 19 7
v 4 20 7
v 4 21 7
v 4 22 7
v 4 23 7
v 4 24 7
v 4 25 7
v 4 26 7
v 4 27 7
v 4 28 7
v 4 29 7
v 5 25 7
v 5 26 7
v 5 27 7
v 5 29 7
v 5 30 7
v 6 24 7
v 6 25 7
v 6 27 7
v 6 30 7
v 6 31 7
v 7 23 7
v 7 24 7
v 7 27 7
v 7 31 7
v 7 32 7
v 8 22 7
v 8 23 7
v 8 27 7
v 8 32 7
v 8 33 7
v 9 21 7
v 9 22 7
v 9 27 7
v 10 21 7
v 10 27 7
v -4 25 6
v -4 31 6
v -3 25 6
v -3 30 6
v -3 31 6
v -2 19 6
v -2 20 6
v -2 25 6
v -2 29 6
v -2 30 6
v -1 20 6
v -1 21 6
v -1 25 6
v -1 27 6
v -1 28 6
v -1 29 6
v 0 21 6
v 0 22 6
v 0 25 6
v 0 27 6
v 0 28 6
v 1 22 6
v 1 23 6
v 1 25 6
v 1 26 6
v 1 27 6
v 2 23 6
v 2 24 6
v 2 25 6
v 2 26 6
v 2 27 6
v 2 28 6
v 2 29 6
v 2 30 6
v 2 31 6
v 2 32 6
v 2 33 6
v 3 24 6
v 3 25 6
v 3 27 6
v 3 28 6
v 4 19 6
v 4 20 6
v 4 21 6
v 4 22 6
v 4 23 6
v 4 24 6
v 4 25 6
v 4 26 6
v 4 27 6
v 4 28 6
v 4 29 6
v 5 25 6
v 5 26 6
v 5 27 6
v 5 29 6
v 5 30 6
v 6 24 6
v 6 25 6
v 6 27 6
v 6 30 6
v 6 31 6
v 7 23 6
v 7 24 6
v 7 27 6
v 7 31 6
v 7 32 6
v 8 22 6
v 8 23 6
v 8 27 6
v 8 32 6
v 8 33 6
v 9 21 6
v 9 22 6
v 9 27 6
v 10 21 6
v 10 27 6
v -2 19 7
v 4 19 7
v -2 19 6
v 4 19 6
v 9 21 7
v 10 21 7
v 9 21 6
v 10 21 6
v 8 22 7
v 9 22 7
v 8 22 6
v 9 22 6
v 7 23 7
v 8 23 7
v 7 23 6
v 8 23 6
v 6 24 7
v 7 24 7
v 6 24 6
v 7 24 6
v -4 25 7
v -3 25 7
v -2 25 7
v -1 25 7
v 0 25 7
v 1 25 7
v 2 25 7
v 3 25 7
v 5 25 7
v 6 25 7
v -4 25 6
v -3 25 6
v -2 25 6
v -1 25 6
v 0 25 6
v 1 25 6
v 2 25 6
v 3 25 6
v 5 25 6
v 6 25 6
v 4 26 7
v 5 26 7
v 4 26 6
v 5 26 6
v 3 28 7
v 4 28 7
v 3 28 6
v 4 28 6
v 4 29 7
v 5 29 7
v 4 29 6
v 5 29 6
v 5 30 7
v 6 30 7
v 5 30 6
v 6 30 6
v 6 31 7
v 7 31 7
v 6 31 6
v 7 31 6
v 7 32 7
v 8 32 7
v 7 32 6
v 8 32 6
v -2 20 7
v -1 20 7
v -2 20 6
v -1 20 6
v -1 21 7
v 0 21 7
v -1 21 6
v 0 21 6
v 0 22 7
v 1 22 7
v 0 22 6
v 1 22 6
v 1 23 7
v 2 23 7
v 1 23 6
v 2 23 6
v 2 24 7
v 3 24 7
v 2 24 6
v 3 24 6
v 1 26 7
v 2 26 7
v 1 26 6
v 2 26 6
v 0 27 7
v 1 27 7
v 3 27 7
v 4 27 7
v 5 27 7
v 6 27 7
v 7 27 7
v 8 27 7
v 9 27 7
v 10 27 7
v 0 27 6
v 1 27 6
v 3 27 6
v 4 27 6
v 5 27 6
v 6 27 6
v 7 27 6
v 8 27 6
v 9 27 6
v 10 27 6
v -1 28 7
v 0 28 7
v -1 28 6
v 0 28 6
v -2 29 7
v -1 29 7
v -2 29 6
v -1 29 6
v -3 30 7
v -2 30 7
v -3 30 6
v -2 30 6
v -4 31 7
v -3 31 7
v -4 31 6
v -3 31 6
v 2 33 7
v 8 33 7
v 2 33 6
v 8 33 6

# faces
f 3/3/1 2/3/1 1/3/1
f 4/3/1 2/3/1 3/3/1
f 7/3/1 6/3/1 5/3/1
f 8/3/1 6/3/1 7/3/1
f 11/2/1 10/2/1 9/2/1
f 12/2/1 10/2/1 11/2/1
f 15/5/1 14/5/1 13/5/1
f 16/5/1 14/5/1 15/5/1
f 19/8/1 18/8/1 17/8/1
f 20/8/1 18/8/1 19/8/1
f 23/6/1 22/6/1 21/6/1
f 24/6/1 22/6/1 23/6/1
f 27/1/1 26/1/1 25/1/1
f 28/1/1 26/1/1 27/1/1
f 29/7/1 28/7/1 27/7/1
f 30/7/1 28/7/1 29/7/1
f 31/6/1 30/6/1 29/6/1
f 32/6/1 30/6/1 31/6/1
f 33/4/1 32/4/1 31/4/1
f 34/4/1 32/4/1 33/4/1
f 35/5/1 34/5/1 33/5/1
f 36/5/1 34/5/1 35/5/1
f 37/2/1 36/2/1 35/2/1
f 38/2/1 36/2/1 37/2/1
f 39/3/1 38/3/1 37/3/1
f 40/3/1 38/3/1 39/3/1
f 43/7/1 42/7/1 41/7/1
f 44/7/1 42/7/1 43/7/1
f 47/6/1 46/6/1 45/6/1
f 48/6/1 46/6/1 47/6/1
f 51/4/1 50/4/1 49/4/1
f 52/4/1 50/4/1 51/4/1
f 55/5/1 54/5/1 53/5/1
f 56/5/1 54/5/1 55/5/1
f 59/2/1 58/2/1 57/2/1
f 60/2/1 58/2/1 59/2/1
f 63/3/1 62/3/1 61/3/1
f 64/3/1 62/3/1 63/3/1
f 65/3/2 66/3/2 67/3/2
f 67/3/2 66/3/2 68/3/2
f 69/2/2 70/2/2 71/2/2
f 71/2/2 70/2/2 72/2/2
f 73/5/2 74/5/2 75/5/2
f 75/5/2 74/5/2 76/5/2
f 77/8/2 78/8/2 79/8/2
f 79/8/2 78/8/2 80/8/2
f 81/6/2 82/6/2 83/6/2
f 83/6/2 82/6/2 84/6/2
f 85/7/2 86/7/2 87/7/2
f 87/7/2 86/7/2 88/7/2
f 89/3/2 90/3/2 91/3/2
f 91/3/2 90/3/2 92/3/2
f 91/2/2 92/2/2 93/2/2
f 93/2/2 92/2/2 94/2/2
f 93/5/2 94/5/2 95/5/2
f 95/5/2 94/5/2 96/5/2
f 95/8/2 96/8/2 97/8/2
f 97/8/2 96/8/2 98/8/2
f 97/6/2 98/6/2 99/6/2
f 99/6/2 98/6/2 100/6/2
f 99/7/2 100/7/2 101/7/2
f 101/7/2 100/7/2 102/7/2
f 101/1/2 102/1/2 103/1/2
f 103/1/2 102/1/2 104/1/2
f 105/6/2 106/6/2 107/6/2
f 107/6/2 106/6/2 108/6/2
f 109/4/2 110/4/2 111/4/2
f 111/4/2 110/4/2 112/4/2
f 113/5/2 114/5/2 115/5/2
f 115/5/2 114/5/2 116/5/2
f 117/2/2 118/2/2 119/2/2
f 119/2/2 118/2/2 120/2/2
f 121/3/2 122/3/2 123/3/2
f 123/3/2 122/3/2 124/3/2
f 125/3/2 126/3/2 127/3/2
f 127/3/2 126/3/2 128/3/2
f 131/3/3 130/3/3 129/3/3
f 132/3/3 130/3/3 131/3/3
f 133/3/3 130/3/3 132/3/3
f 136/2/3 132/2/3 131/2/3
f 137/2/3 132/2/3 136/2/3
f 138/2/3 132/2/3 137/2/3
f 139/3/3 135/3/3 134/3/3
f 141/5/3 137/5/3 136/5/3
f 142/5/3 137/5/3 141/5/3
f 143/5/3 137/5/3 142/5/3
f 144/5/3 137/5/3 143/5/3
f 145/2/3 140/2/3 139/2/3
f 147/4/3 142/4/3 141/4/3
f 148/8/3 143/8/3 142/8/3
f 148/4/3 142/4/3 147/4/3
f 149/8/3 143/8/3 148/8/3
f 150/5/3 146/5/3 145/5/3
f 152/6/3 148/6/3 147/6/3
f 153/6/3 148/6/3 152/6/3
f 154/6/3 148/6/3 153/6/3
f 155/8/3 151/8/3 150/8/3
f 157/7/3 153/7/3 152/7/3
f 158/7/3 153/7/3 157/7/3
f 166/6/3 156/6/3 155/6/3
f 167/1/3 159/1/3 158/1/3
f 167/1/3 158/1/3 157/1/3
f 168/7/3 160/7/3 159/7/3
f 168/1/3 159/1/3 167/1/3
f 169/6/3 161/6/3 160/6/3
f 169/7/3 160/7/3 168/7/3
f 170/3/3 139/3/3 134/3/3
f 171/2/3 145/2/3 139/2/3
f 171/3/3 139/3/3 170/3/3
f 172/5/3 150/5/3 145/5/3
f 172/2/3 145/2/3 171/2/3
f 173/8/3 155/8/3 150/8/3
f 173/5/3 150/5/3 172/5/3
f 174/6/3 166/6/3 155/6/3
f 174/8/3 155/8/3 173/8/3
f 175/7/3 167/7/3 166/7/3
f 175/6/3 166/6/3 174/6/3
f 176/1/3 168/1/3 167/1/3
f 176/7/3 167/7/3 175/7/3
f 177/1/3 168/1/3 176/1/3
f 178/1/3 168/1/3 177/1/3
f 179/6/3 161/6/3 169/6/3
f 180/4/3 162/4/3 161/4/3
f 180/6/3 161/6/3 179/6/3
f 182/7/3 178/7/3 177/7/3
f 183/7/3 178/7/3 182/7/3
f 184/4/3 162/4/3 180/4/3
f 185/5/3 163/5/3 162/5/3
f 185/4/3 162/4/3 184/4/3
f 187/6/3 183/6/3 182/6/3
f 187/6/3 182/6/3 181/6/3
f 188/6/3 183/6/3 187/6/3
f 189/5/3 163/5/3 185/5/3
f 190/2/3 164/2/3 163/2/3
f 190/5/3 163/5/3 189/5/3
f 192/4/3 188/4/3 187/4/3
f 192/4/3 187/4/3 186/4/3
f 193/4/3 188/4/3 192/4/3
f 194/2/3 164/2/3 190/2/3
f 195/3/3 165/3/3 164/3/3
f 195/2/3 164/2/3 194/2/3
f 197/5/3 193/5/3 192/5/3
f 197/5/3 192/5/3 191/5/3
f 198/5/3 193/5/3 197/5/3
f 199/3/3 165/3/3 195/3/3
f 200/3/3 165/3/3 199/3/3
f 202/2/3 198/2/3 197/2/3
f 202/2/3 197/2/3 196/2/3
f 203/2/3 198/2/3 202/2/3
f 204/3/3 202/3/3 201/3/3
f 204/3/3 203/3/3 202/3/3
f 205/3/3 203/3/3 204/3/3
f 206/3/4 207/3/4 208/3/4
f 208/3/4 207/3/4 209/3/4
f 209/3/4 207/3/4 210/3/4
f 208/2/4 209/2/4 213/2/4
f 213/2/4 209/2/4 214/2/4
f 214/2/4 209/2/4 215/2/4
f 211/3/4 212/3/4 216/3/4
f 213/5/4 214/5/4 218/5/4
f 218/5/4 214/5/4 219/5/4
f 219/5/4 214/5/4 220/5/4
f 220/5/4 214/5/4 221/5/4
f 216/2/4 217/2/4 222/2/4
f 218/4/4 219/4/4 224/4/4
f 219/8/4 220/8/4 225/8/4
f 224/4/4 219/4/4 225/4/4
f 225/8/4 220/8/4 226/8/4
f 222/5/4 223/5/4 227/5/4
f 224/6/4 225/6/4 229/6/4
f 229/6/4 225/6/4 230/6/4
f 230/6/4 225/6/4 231/6/4
f 227/8/4 228/8/4 232/8/4
f 229/7/4 230/7/4 234/7/4
f 234/7/4 230/7/4 235/7/4
f 232/6/4 233/6/4 243/6/4
f 235/1/4 236/1/4 244/1/4
f 234/1/4 235/1/4 244/1/4
f 236/7/4 237/7/4 245/7/4
f 244/1/4 236/1/4 245/1/4
f 237/6/4 238/6/4 246/6/4
f 245/7/4 237/7/4 246/7/4
f 211/3/4 216/3/4 247/3/4
f 216/2/4 222/2/4 248/2/4
f 247/3/4 216/3/4 248/3/4
f 222/5/4 227/5/4 249/5/4
f 248/2/4 222/2/4 249/2/4
f 227/8/4 232/8/4 250/8/4
f 249/5/4 227/5/4 250/5/4
f 232/6/4 243/6/4 251/6/4
f 250/8/4 232/8/4 251/8/4
f 243/7/4 244/7/4 252/7/4
f 251/6/4 243/6/4 252/6/4
f 244/1/4 245/1/4 253/1/4
f 252/7/4 244/7/4 253/7/4
f 253/1/4 245/1/4 254/1/4
f 254/1/4 245/1/4 255/1/4
f 246/6/4 238/6/4 256/6/4
f 238/4/4 239/4/4 257/4/4
f 256/6/4 238/6/4 257/6/4
f 254/7/4 255/7/4 259/7/4
f 259/7/4 255/7/4 260/7/4
f 257/4/4 239/4/4 261/4/4
f 239/5/4 240/5/4 262/5/4
f 261/4/4 239/4/4 262/4/4
f 259/6/4 260/6/4 264/6/4
f 258/6/4 259/6/4 264/6/4
f 264/6/4 260/6/4 265/6/4
f 262/5/4 240/5/4 266/5/4
f 240/2/4 241/2/4 267/2/4
f 266/5/4 240/5/4 267/5/4
f 264/4/4 265/4/4 269/4/4
f 263/4/4 264/4/4 269/4/4
f 269/4/4 265/4/4 270/4/4
f 267/2/4 241/2/4 271/2/4
f 241/3/4 242/3/4 272/3/4
f 271/2/4 241/2/4 272/2/4
f 269/5/4 270/5/4 274/5/4
f 268/5/4 269/5/4 274/5/4
f 274/5/4 270/5/4 275/5/4
f 272/3/4 242/3/4 276/3/4
f 276/3/4 242/3/4 277/3/4
f 274/2/4 275/2/4 279/2/4
f 273/2/4 274/2/4 279/2/4
f 279/2/4 275/2/4 280/2/4
f 278/3/4 279/3/4 281/3/4
f 279/3/4 280/3/4 281/3/4
f 281/3/4 280/3/4 282/3/4
f 285/3/5 284/3/5 283/3/5
f 286/3/5 284/3/5 285/3/5
f 289/3/5 288/3/5 287/3/5
f 290/3/5 288/3/5 289/3/5
f 293/2/5 292/2/5 291/2/5
f 294/2/5 292/2/5 293/2/5
f 297/5/5 296/5/5 295/5/5
f 298/5/5 296/5/5 297/5/5
f 301/4/5 300/4/5 299/4/5
f 302/4/5 300/4/5 301/4/5
f 313/3/5 304/3/5 303/3/5
f 314/2/5 305/2/5 304/2/5
f 314/3/5 304/3/5 313/3/5
f 315/5/5 306/5/5 305/5/5
f 315/2/5 305/2/5 314/2/5
f 316/4/5 307/4/5 306/4/5
f 316/5/5 306/5/5 315/5/5
f 317/6/5 308/6/5 307/6/5
f 317/4/5 307/4/5 316/4/5
f 318/7/5 309/7/5 308/7/5
f 318/6/5 308/6/5 317/6/5
f 319/1/5 310/1/5 309/1/5
f 319/7/5 309/7/5 318/7/5
f 320/1/5 310/1/5 319/1/5
f 321/6/5 312/6/5 311/6/5
f 322/6/5 312/6/5 321/6/5
f 325/7/5 324/7/5 323/7/5
f 326/7/5 324/7/5 325/7/5
f 329/6/5 328/6/5 327/6/5
f 330/6/5 328/6/5 329/6/5
f 333/4/5 332/4/5 331/4/5
f 334/4/5 332/4/5 333/4/5
f 337/5/5 336/5/5 335/5/5
f 338/5/5 336/5/5 337/5/5
f 341/2/5 340/2/5 339/2/5
f 342/2/5 340/2/5 341/2/5
f 345/3/5 344/3/5 343/3/5
f 346/3/5 344/3/5 345/3/5
f 347/3/6 348/3/6 349/3/6
f 349/3/6 348/3/6 350/3/6
f 351/2/6 352/2/6 353/2/6
f 353/2/6 352/2/6 354/2/6
f 355/5/6 356/5/6 357/5/6
f 357/5/6 356/5/6 358/5/6
f 359/8/6 360/8/6 361/8/6
f 361/8/6 360/8/6 362/8/6
f 363/6/6 364/6/6 365/6/6
f 365/6/6 364/6/6 366/6/6
f 367/7/6 368/7/6 369/7/6
f 369/7/6 368/7/6 370/7/6
f 371/6/6 372/6/6 381/6/6
f 381/6/6 372/6/6 382/6/6
f 373/1/6 374/1/6 383/1/6
f 374/7/6 375/7/6 384/7/6
f 383/1/6 374/1/6 384/1/6
f 375/6/6 376/6/6 385/6/6
f 384/7/6 375/7/6 385/7/6
f 376/4/6 377/4/6 386/4/6
f 385/6/6 376/6/6 386/6/6
f 377/5/6 378/5/6 387/5/6
f 386/4/6 377/4/6 387/4/6
f 378/2/6 379/2/6 388/2/6
f 387/5/6 378/5/6 388/5/6
f 379/3/6 380/3/6 389/3/6
f 388/2/6 379/2/6 389/2/6
f 389/3/6 380/3/6 390/3/6
f 391/8/6 392/8/6 393/8/6
f 393/8/6 392/8/6 394/8/6
f 395/5/6 396/5/6 397/5/6
f 397/5/6 396/5/6 398/5/6
f 399/2/6 400/2/6 401/2/6
f 401/2/6 400/2/6 402/2/6
f 403/3/6 404/3/6 405/3/6
f 405/3/6 404/3/6 406/3/6
f 407/3/6 408/3/6 409/3/6
f 409/3/6 408/3/6 410/3/6
